<svg xmlns="http://www.w3.org/2000/svg" width="30.038" height="30.038" viewBox="0 0 30.038 30.038">
  <path id="akar-icons_instagram-fill" d="M16.827,8.09c1.6-.074,2.112-.09,6.192-.09s4.59.018,6.191.09a11.053,11.053,0,0,1,3.648.7,7.688,7.688,0,0,1,4.391,4.392,11.046,11.046,0,0,1,.7,3.646c.074,1.6.09,2.115.09,6.193s-.018,4.59-.09,6.192a11.011,11.011,0,0,1-.7,3.646,7.668,7.668,0,0,1-4.391,4.392,11.046,11.046,0,0,1-3.646.7c-1.6.074-2.114.09-6.193.09s-4.59-.018-6.192-.09a11.011,11.011,0,0,1-3.646-.7,7.675,7.675,0,0,1-4.394-4.391,11.085,11.085,0,0,1-.7-3.646C8.016,27.608,8,27.1,8,23.019s.018-4.59.09-6.191a11.053,11.053,0,0,1,.7-3.648A7.7,7.7,0,0,1,13.18,8.788a11.085,11.085,0,0,1,3.646-.7Zm12.261,2.7c-1.584-.072-2.059-.087-6.069-.087s-4.485.015-6.069.087a8.3,8.3,0,0,0-2.789.517,4.96,4.96,0,0,0-2.85,2.85,8.3,8.3,0,0,0-.517,2.789c-.072,1.584-.087,2.059-.087,6.069s.015,4.485.087,6.069a8.3,8.3,0,0,0,.517,2.789,4.96,4.96,0,0,0,2.85,2.85,8.3,8.3,0,0,0,2.789.517c1.584.072,2.058.087,6.069.087s4.485-.015,6.069-.087a8.3,8.3,0,0,0,2.789-.517,4.96,4.96,0,0,0,2.85-2.85,8.3,8.3,0,0,0,.517-2.789c.072-1.584.087-2.059.087-6.069s-.015-4.485-.087-6.069a8.3,8.3,0,0,0-.517-2.789,4.96,4.96,0,0,0-2.85-2.85,8.3,8.3,0,0,0-2.789-.517ZM21.1,27.649a5.011,5.011,0,1,0-1.794-1.265A5.009,5.009,0,0,0,21.1,27.649ZM17.56,17.56A7.72,7.72,0,1,1,15.3,23.019,7.72,7.72,0,0,1,17.56,17.56Zm14.891-1.111a1.826,1.826,0,1,0-1.279.5,1.824,1.824,0,0,0,1.279-.5Z" transform="translate(-8 -8)" fill="#fff" fill-rule="evenodd"/>
</svg>
