<svg xmlns="http://www.w3.org/2000/svg" width="33.152" height="33.152" viewBox="0 0 33.152 33.152">
  <path id="Compass" d="M19.576,36.152A16.576,16.576,0,1,1,36.152,19.576,16.576,16.576,0,0,1,19.576,36.152Zm0-31.574a15,15,0,1,0,15,15A15,15,0,0,0,19.576,4.579ZM32.206,20.366h-.789a.789.789,0,0,1,0-1.579h.789a.789.789,0,1,1,0,1.579Zm-4.753,6.476a.745.745,0,0,1-.206.406.769.769,0,0,1-.891.136l.046.047.006.006c-.128-.053-.242-.1-.366-.154a48.892,48.892,0,0,1-7.788-3.9,8.915,8.915,0,0,1-1.416-1.068c-.036-.034-1.964-1.9-5.119-9.571h0l.053.053c-.008-.016-.009-.033-.016-.049a.762.762,0,0,1-.03-.522.736.736,0,0,1,.181-.321.764.764,0,0,1,.869-.143.182.182,0,0,1,.022.008l-.018-.02-.034-.033h0c7.667,3.155,9.537,5.083,9.571,5.119s1.964,1.9,5.119,9.571h0l-.035-.035-.018-.017a.855.855,0,0,1,.038.115A.778.778,0,0,1,27.453,26.841Zm-6.262-8.9c-.017-.017-1.591-1.521-7.252-4,2.483,5.66,3.99,7.236,4.022,7.268.017.017,1.591,1.522,7.252,4C22.73,19.552,21.223,17.977,21.191,17.945Zm-1.615.842a.789.789,0,1,1-.789.789A.789.789,0,0,1,19.576,18.787Zm0-10.261a.789.789,0,0,1-.789-.789V6.947a.789.789,0,0,1,1.579,0v.789A.789.789,0,0,1,19.576,8.525Zm0,22.1a.789.789,0,0,1,.789.789v.789a.789.789,0,1,1-1.579,0v-.789A.789.789,0,0,1,19.576,30.627ZM7.736,20.366H6.947a.789.789,0,0,1,0-1.579h.789a.789.789,0,0,1,0,1.579Z" transform="translate(-3 -3)" fill="#fff" fill-rule="evenodd"/>
</svg>
