<svg xmlns="http://www.w3.org/2000/svg" width="13.478" height="10.004" viewBox="0 0 13.478 10.004">
  <g id="Group_1559" data-name="Group 1559" transform="translate(-1200.009 -5128.62)">
    <path id="Path_1214" data-name="Path 1214" d="M1.294,57.9q.256.17,1.542,1.012t1.971,1.3l.32.217q.244.167.406.27t.391.231a2.333,2.333,0,0,0,.432.192,1.255,1.255,0,0,0,.376.064h.015a1.256,1.256,0,0,0,.376-.064,2.335,2.335,0,0,0,.432-.192q.229-.128.391-.231t.406-.27l.32-.217,3.52-2.309a3.478,3.478,0,0,0,.917-.874,1.807,1.807,0,0,0,.369-1.073,1.06,1.06,0,0,0-.357-.8,1.2,1.2,0,0,0-.846-.334H1.2a1.1,1.1,0,0,0-.891.369A1.382,1.382,0,0,0,0,56.113a1.609,1.609,0,0,0,.414.97A3.643,3.643,0,0,0,1.294,57.9Z" transform="translate(1200.009 5073.8)" fill="#fff"/>
    <path id="Path_1215" data-name="Path 1215" d="M12.726,185.055q-2.467,1.577-3.745,2.451-.429.3-.7.465a4.4,4.4,0,0,1-.711.341,2.272,2.272,0,0,1-.827.174H6.731a2.272,2.272,0,0,1-.827-.174,4.4,4.4,0,0,1-.711-.341q-.267-.167-.7-.465-1.015-.7-3.738-2.451a3.929,3.929,0,0,1-.76-.618v5.641a1.065,1.065,0,0,0,.353.8,1.193,1.193,0,0,0,.85.334H12.274a1.193,1.193,0,0,0,.85-.334,1.065,1.065,0,0,0,.353-.8v-5.641A4.088,4.088,0,0,1,12.726,185.055Z" transform="translate(1200.009 4947.408)" fill="#fff"/>
  </g>
</svg>
