<svg xmlns:xlink="http://www.w3.org/1999/xlink" xmlns="http://www.w3.org/2000/svg" width="206.81" height="61.774" viewBox="0 0 206.81 61.774">
  <defs>
    <clipPath id="clip-path">
      <path id="Path_30" data-name="Path 30" d="M0,0H206.81V61.774H0ZM0,0"/>
    </clipPath>
  </defs>
  <g id="Group_23" data-name="Group 23" transform="translate(-160 -683)">
    <g id="Group_1" data-name="Group 1" transform="translate(160 683)">
      <path id="Path_28" data-name="Path 28" d="M199.073,60.144H7.825A7.016,7.016,0,0,1,.809,53.127V7.821A7.016,7.016,0,0,1,7.825.8H199.073a7.016,7.016,0,0,1,7.017,7.016V53.127a7.016,7.016,0,0,1-7.017,7.016" transform="translate(-0.04 -0.04)"/>
      <g id="Group_22" data-name="Group 22" clip-path="url(#clip-path)">
        <path id="Path_29" data-name="Path 29" d="M7.781,1.533A6.255,6.255,0,0,0,1.533,7.781V53.087a6.255,6.255,0,0,0,6.248,6.248H199.033a6.255,6.255,0,0,0,6.248-6.248V7.781a6.255,6.255,0,0,0-6.248-6.248ZM199.033,60.872H7.781A7.792,7.792,0,0,1,0,53.087V7.781A7.792,7.792,0,0,1,7.781,0H199.033a7.792,7.792,0,0,1,7.781,7.785V53.087a7.792,7.792,0,0,1-7.781,7.785" transform="translate(0 0)" fill="#a7a9ab"/>
      </g>
      <path id="Path_31" data-name="Path 31" d="M75.168,16.459l-.787-2.465c-.193-.609-.356-1.288-.5-1.867h-.03c-.145.579-.3,1.273-.471,1.867L72.6,16.459Zm-2.862,1.377-.861,2.836H69.559l3.208-10h2.328l3.248,10H76.386l-.906-2.836" transform="translate(-3.452 -0.53)" fill="#fff"/>
      <path id="Path_32" data-name="Path 32" d="M81.569,13.594l1.173,3.66c.208.639.353,1.218.486,1.812h.044c.134-.594.3-1.158.49-1.812l1.158-3.66h1.912l-2.758,7.224H82.282l-2.688-7.224" transform="translate(-3.95 -0.675)" fill="#fff"/>
      <path id="Path_33" data-name="Path 33" d="M92.778,17.275c-1.292-.015-2.524.252-2.524,1.351a.959.959,0,0,0,1.039,1.04,1.494,1.494,0,0,0,1.437-.995,1.143,1.143,0,0,0,.048-.4Zm1.778,1.8a9.687,9.687,0,0,0,.119,1.734H93.026l-.13-.8h-.048a2.638,2.638,0,0,1-2.135.961,2.141,2.141,0,0,1-2.268-2.149c0-1.812,1.615-2.744,4.284-2.729v-.119c0-.475-.189-1.262-1.466-1.262a3.83,3.83,0,0,0-1.945.535l-.356-1.188a5.211,5.211,0,0,1,2.614-.635c2.313,0,2.981,1.466,2.981,3.055" transform="translate(-4.389 -0.666)" fill="#fff"/>
      <path id="Path_34" data-name="Path 34" d="M97.584,13.436h1.823v7.224H97.584Zm.9-1.04a1.031,1.031,0,1,1,.019,0" transform="translate(-4.837 -0.517)" fill="#fff"/>
      <path id="Path_35" data-name="Path 35" d="M102.27,20.644H104.1V10.094H102.27Zm0,0" transform="translate(-5.075 -0.501)" fill="#fff"/>
      <path id="Path_36" data-name="Path 36" d="M110.77,17.275c-1.292-.015-2.524.252-2.524,1.351a.959.959,0,0,0,1.04,1.04,1.5,1.5,0,0,0,1.44-.995,1.23,1.23,0,0,0,.045-.4Zm1.778,1.8a9.66,9.66,0,0,0,.119,1.734h-1.644l-.134-.8h-.045a2.651,2.651,0,0,1-2.138.961,2.142,2.142,0,0,1-2.268-2.149c0-1.812,1.618-2.744,4.287-2.729v-.119c0-.475-.193-1.262-1.47-1.262a3.807,3.807,0,0,0-1.942.535l-.356-1.188a5.2,5.2,0,0,1,2.61-.635c2.313,0,2.981,1.466,2.981,3.055" transform="translate(-5.282 -0.666)" fill="#fff"/>
      <path id="Path_37" data-name="Path 37" d="M117.406,17.66a2.03,2.03,0,0,0,.045.431,1.667,1.667,0,0,0,1.615,1.277c1.143,0,1.842-.906,1.842-2.372,0-1.277-.609-2.317-1.827-2.317a1.694,1.694,0,0,0-1.616,1.336,2.2,2.2,0,0,0-.059.475Zm-1.827-7.566h1.827v4.317h.029a2.608,2.608,0,0,1,2.313-1.155c1.767,0,3.025,1.466,3.011,3.664,0,2.595-1.645,3.887-3.278,3.887A2.483,2.483,0,0,1,117.2,19.56h-.029l-.089,1.084H115.52c.029-.49.059-1.292.059-2.02" transform="translate(-5.733 -0.501)" fill="#fff"/>
      <path id="Path_38" data-name="Path 38" d="M125.4,20.644h1.823V10.094H125.4Zm0,0" transform="translate(-6.223 -0.501)" fill="#fff"/>
      <path id="Path_39" data-name="Path 39" d="M134.536,16.433a1.554,1.554,0,0,0-1.5-1.767,1.787,1.787,0,0,0-1.678,1.767Zm-3.174,1.273a1.965,1.965,0,0,0,2.228,1.871,5.812,5.812,0,0,0,2-.327l.268,1.244a6.427,6.427,0,0,1-2.521.46,3.418,3.418,0,0,1-3.727-3.646c0-2,1.218-3.887,3.534-3.887,2.343,0,3.114,1.927,3.114,3.516a4.444,4.444,0,0,1-.059.768" transform="translate(-6.432 -0.666)" fill="#fff"/>
      <path id="Path_40" data-name="Path 40" d="M145.949,19.651c1.035,0,1.763-1.01,1.763-2.476,0-1.129-.5-2.435-1.749-2.435-1.292,0-1.811,1.262-1.811,2.465,0,1.392.7,2.447,1.778,2.447Zm-.06,1.322a3.492,3.492,0,0,1-3.619-3.724,3.564,3.564,0,0,1,3.738-3.827,3.465,3.465,0,0,1,3.59,3.709,3.577,3.577,0,0,1-3.693,3.842" transform="translate(-7.06 -0.666)" fill="#fff"/>
      <path id="Path_41" data-name="Path 41" d="M152.235,15.735c0-.832-.026-1.53-.055-2.153h1.585l.088,1.084h.045a2.654,2.654,0,0,1,2.317-1.244c1.258,0,2.565.813,2.565,3.1v4.284h-1.827V16.73c0-1.039-.386-1.826-1.377-1.826a1.532,1.532,0,0,0-1.426,1.069,1.684,1.684,0,0,0-.089.579v4.254h-1.827" transform="translate(-7.552 -0.666)" fill="#fff"/>
      <path id="Path_42" data-name="Path 42" d="M167.826,11.641v1.852h1.733v1.366h-1.733v3.174c0,.891.238,1.336.931,1.336a2.379,2.379,0,0,0,.713-.074l.029,1.377a3.9,3.9,0,0,1-1.321.193,2.1,2.1,0,0,1-1.571-.59,2.854,2.854,0,0,1-.579-2.034V14.859H165V13.493h1.025V12.146" transform="translate(-8.188 -0.578)" fill="#fff"/>
      <path id="Path_43" data-name="Path 43" d="M171.934,10.094h1.826v4.3h.03a2.4,2.4,0,0,1,.906-.817,2.6,2.6,0,0,1,1.258-.323c1.233,0,2.52.813,2.52,3.129v4.258h-1.823V16.579c0-1.04-.386-1.841-1.4-1.841a1.522,1.522,0,0,0-1.422,1.025,1.629,1.629,0,0,0-.075.549v4.332h-1.826" transform="translate(-8.532 -0.501)" fill="#fff"/>
      <path id="Path_44" data-name="Path 44" d="M185.989,16.433a1.555,1.555,0,0,0-1.5-1.767,1.783,1.783,0,0,0-1.675,1.767Zm-3.174,1.273a1.962,1.962,0,0,0,2.224,1.871,5.79,5.79,0,0,0,2-.327l.271,1.244a6.433,6.433,0,0,1-2.525.46,3.416,3.416,0,0,1-3.723-3.646c0-2,1.217-3.887,3.53-3.887,2.343,0,3.115,1.927,3.115,3.516a4.424,4.424,0,0,1-.06.768" transform="translate(-8.985 -0.666)" fill="#fff"/>
      <path id="Path_45" data-name="Path 45" d="M47.176,30.8a8.888,8.888,0,0,1,4.24-7.469,9.114,9.114,0,0,0-7.183-3.883c-3.018-.316-5.947,1.812-7.484,1.812-1.57,0-3.943-1.778-6.493-1.726a9.568,9.568,0,0,0-8.048,4.908c-3.475,6.025-.884,14.876,2.45,19.746,1.671,2.383,3.616,5.049,6.166,4.952,2.495-.1,3.426-1.589,6.437-1.589,2.985,0,3.861,1.589,6.463,1.53,2.677-.045,4.362-2.394,5.969-4.8a19.575,19.575,0,0,0,2.732-5.561A8.608,8.608,0,0,1,47.176,30.8" transform="translate(-1.02 -0.964)" fill="#fff"/>
      <path id="Path_46" data-name="Path 46" d="M43.088,15.758a8.753,8.753,0,0,0,2-6.281,8.941,8.941,0,0,0-5.769,2.985,8.333,8.333,0,0,0-2.057,6.048,7.363,7.363,0,0,0,5.821-2.751" transform="translate(-1.847 -0.47)" fill="#fff"/>
      <path id="Path_47" data-name="Path 47" d="M79.659,40.72,77.936,35.4q-.273-.813-1.028-3.835h-.059c-.2.865-.527,2.146-.969,3.835l-1.693,5.32Zm5.955,8.5H82.135l-1.9-5.984H73.615L71.8,49.217H68.414l6.563-20.374h4.047" transform="translate(-3.395 -1.432)" fill="#fff"/>
      <path id="Path_48" data-name="Path 48" d="M100.2,42.092a6.048,6.048,0,0,0-.969-3.538,3.345,3.345,0,0,0-2.84-1.451,3.388,3.388,0,0,0-2.19.8,3.757,3.757,0,0,0-1.288,2.1,4.237,4.237,0,0,0-.149.991v2.45a3.927,3.927,0,0,0,.98,2.706,3.253,3.253,0,0,0,2.554,1.1,3.321,3.321,0,0,0,2.87-1.422,6.212,6.212,0,0,0,1.032-3.746m3.326-.123a8.345,8.345,0,0,1-2.027,5.925,5.922,5.922,0,0,1-4.5,1.934,4.506,4.506,0,0,1-4.173-2.086h-.059v7.74H89.494V39.642q0-2.356-.119-4.837h2.87l.182,2.331h.063a5.8,5.8,0,0,1,9.292-.575,8.108,8.108,0,0,1,1.741,5.409" transform="translate(-4.435 -1.712)" fill="#fff"/>
      <path id="Path_49" data-name="Path 49" d="M117.974,42.092a6.053,6.053,0,0,0-.968-3.538,3.347,3.347,0,0,0-2.841-1.451,3.394,3.394,0,0,0-2.19.8,3.7,3.7,0,0,0-1.281,2.1,4.1,4.1,0,0,0-.152.991v2.45a3.926,3.926,0,0,0,.976,2.706,3.257,3.257,0,0,0,2.558,1.1,3.33,3.33,0,0,0,2.869-1.422,6.258,6.258,0,0,0,1.028-3.746m3.323-.123a8.344,8.344,0,0,1-2.023,5.925,5.914,5.914,0,0,1-4.5,1.934,4.515,4.515,0,0,1-4.173-2.086h-.055v7.74h-3.267V39.642q0-2.356-.119-4.837h2.87l.182,2.331h.064a5.8,5.8,0,0,1,9.292-.575A8.1,8.1,0,0,1,121.3,41.97" transform="translate(-5.318 -1.712)" fill="#fff"/>
      <path id="Path_50" data-name="Path 50" d="M141.258,43.488a5.435,5.435,0,0,1-1.811,4.232A8.026,8.026,0,0,1,133.9,49.5a9.743,9.743,0,0,1-5.287-1.27l.757-2.717a8.974,8.974,0,0,0,4.722,1.3,4.463,4.463,0,0,0,2.873-.828,2.727,2.727,0,0,0,1.024-2.227,2.843,2.843,0,0,0-.842-2.09,7.938,7.938,0,0,0-2.814-1.574q-5.352-2-5.35-5.843a5.169,5.169,0,0,1,1.875-4.117,7.4,7.4,0,0,1,4.986-1.607,9.918,9.918,0,0,1,4.625.969l-.817,2.662a8.027,8.027,0,0,0-3.9-.939,3.934,3.934,0,0,0-2.688.846,2.43,2.43,0,0,0-.817,1.845,2.48,2.48,0,0,0,.936,1.994,10.633,10.633,0,0,0,2.962,1.574,10.041,10.041,0,0,1,3.868,2.476,5.2,5.2,0,0,1,1.24,3.538" transform="translate(-6.382 -1.416)" fill="#fff"/>
      <path id="Path_51" data-name="Path 51" d="M152.8,37.08h-3.6v7.132q0,2.723,1.908,2.721a5.872,5.872,0,0,0,1.448-.148l.088,2.476a7.243,7.243,0,0,1-2.536.364,3.928,3.928,0,0,1-3.025-1.177A5.8,5.8,0,0,1,146,44.486V37.08h-2.146v-2.45H146V31.942l3.2-.969v3.657h3.6" transform="translate(-7.139 -1.537)" fill="#fff"/>
      <path id="Path_52" data-name="Path 52" d="M166.215,42.137a6.617,6.617,0,0,0-.88-3.486,3.216,3.216,0,0,0-2.929-1.76,3.27,3.27,0,0,0-2.992,1.76,6.747,6.747,0,0,0-.872,3.549,6.592,6.592,0,0,0,.872,3.482,3.294,3.294,0,0,0,2.966,1.76,3.259,3.259,0,0,0,2.929-1.789,6.6,6.6,0,0,0,.906-3.516m3.386-.1a8.045,8.045,0,0,1-1.935,5.561,6.9,6.9,0,0,1-5.379,2.235,6.578,6.578,0,0,1-5.157-2.146,7.82,7.82,0,0,1-1.915-5.409,7.967,7.967,0,0,1,1.979-5.591,6.836,6.836,0,0,1,5.331-2.179,6.715,6.715,0,0,1,5.2,2.146,7.753,7.753,0,0,1,1.875,5.383" transform="translate(-7.703 -1.712)" fill="#fff"/>
      <path id="Path_53" data-name="Path 53" d="M181.106,37.678a5.679,5.679,0,0,0-1.028-.089,3.092,3.092,0,0,0-2.662,1.3,4.909,4.909,0,0,0-.814,2.9V49.5h-3.263l.026-10.064q0-2.545-.119-4.629h2.844l.119,2.814h.086a5.048,5.048,0,0,1,1.634-2.328,3.966,3.966,0,0,1,2.361-.787,5.4,5.4,0,0,1,.817.059" transform="translate(-8.597 -1.712)" fill="#fff"/>
      <path id="Path_54" data-name="Path 54" d="M193.079,40.609a4.447,4.447,0,0,0-.631-2.51,2.861,2.861,0,0,0-2.6-1.362,3.1,3.1,0,0,0-2.6,1.333,4.825,4.825,0,0,0-.962,2.539Zm3.111.846a7.972,7.972,0,0,1-.115,1.481h-9.79a4.241,4.241,0,0,0,1.418,3.326,4.84,4.84,0,0,0,3.2,1.025,10.832,10.832,0,0,0,3.96-.694l.513,2.268a12.357,12.357,0,0,1-4.931.91,7.114,7.114,0,0,1-5.364-2.016,7.424,7.424,0,0,1-1.949-5.394,8.4,8.4,0,0,1,1.815-5.531,6.244,6.244,0,0,1,5.134-2.357A5.474,5.474,0,0,1,194.9,36.83a7.926,7.926,0,0,1,1.292,4.626" transform="translate(-9.088 -1.711)" fill="#fff"/>
    </g>
  </g>
</svg>
