<svg xmlns="http://www.w3.org/2000/svg" width="18.06" height="33.355" viewBox="0 0 18.06 33.355">
  <path id="Manicure" d="M16.056,2.984a2.045,2.045,0,0,0-1.922,2.147V15.8H11.316a2.227,2.227,0,0,0-1.849,1.241,3.977,3.977,0,0,0-.448,2.713l2.82,16.061a.641.641,0,0,0,.631.528H23.488a.641.641,0,0,0,.631-.528l2.818-16.061c.392-2.233-.8-3.954-2.295-3.954H21.824V5.131A2.045,2.045,0,0,0,19.9,2.984Zm0,1.281H19.9c.305,0,.641.323.641.866V15.777H15.415V5.131C15.415,4.588,15.75,4.266,16.056,4.266Zm-4.74,12.813H24.642c.348,0,1.33.76,1.033,2.45L22.95,35.059h-1.3L23.092,21.57a1.645,1.645,0,0,0-1.531-1.927H14.4v0a1.649,1.649,0,0,0-1.532,1.922l1.439,13.5h-1.3L10.28,19.528a2.7,2.7,0,0,1,.29-1.837A1.146,1.146,0,0,1,11.316,17.078ZM14.4,20.922h7.165a.509.509,0,0,1,.26.5l0,.013L20.365,35.059H15.593L14.139,21.428A.513.513,0,0,1,14.4,20.922Zm1.964.525A2.47,2.47,0,0,0,14.854,22.9a3.233,3.233,0,0,0-.008,1.889,8.182,8.182,0,0,0,1.587,2.993l.986-.821a7.464,7.464,0,0,1-1.331-2.492,2.061,2.061,0,0,1-.025-1.144,1.069,1.069,0,0,1,.751-.676Zm2.467.618a2.195,2.195,0,0,0-1.259.538,2.57,2.57,0,0,0-.8,1.461A2.439,2.439,0,0,0,17,25.689,2.03,2.03,0,0,0,18.488,26.7l.188-1.266a.646.646,0,0,1-.548-.36,1.221,1.221,0,0,1-.1-.776,1.344,1.344,0,0,1,.39-.738.851.851,0,0,1,.746-.213.541.541,0,0,1,.518.408,2.865,2.865,0,0,1,.128,1.286,7.09,7.09,0,0,1-1.076,3.071l1.034.756a7.843,7.843,0,0,0,1.319-3.714,3.9,3.9,0,0,0-.23-1.912,1.966,1.966,0,0,0-1.529-1.166A2.288,2.288,0,0,0,18.828,22.066Zm-.686,6.8c-.2.228-.452.4-.726.673-.332.33-.648.537-.961.9a2.826,2.826,0,0,0-.621,1.577,1.925,1.925,0,0,0,.46,1.4,2.692,2.692,0,0,0,1.186.873,1.936,1.936,0,0,0,1.589-.08,2.487,2.487,0,0,0,1.121-1.584l-1.234-.35a1.218,1.218,0,0,1-.5.808.614.614,0,0,1-.538,0,1.516,1.516,0,0,1-.618-.46.8.8,0,0,1-.2-.468,1.331,1.331,0,0,1,.318-.878c.165-.192.482-.42.893-.828a7.95,7.95,0,0,0,.8-.748Z" transform="translate(-8.952 -2.984)" fill="#fff"/>
</svg>
