<svg xmlns="http://www.w3.org/2000/svg" width="14.271" height="14.276" viewBox="0 0 14.271 14.276">
  <path id="Path_1213" data-name="Path 1213" d="M4.485,4.726l-3.3-3.3L2.465.15A.506.506,0,0,1,3.178.144L5.746,2.714a.508.508,0,0,1,0,.717l-.563.562-.524.524A1.442,1.442,0,0,0,4.485,4.726ZM7.2,10.1c-.54-.464-1.057-.958-1.56-1.459S4.644,7.618,4.178,7.076a1.624,1.624,0,0,1-.256-1.613L.538,2.078c-.788.81-.687,2.817.176,4.581A12.7,12.7,0,0,0,2.062,8.765a18.878,18.878,0,0,0,1.612,1.841,17.983,17.983,0,0,0,1.836,1.618,12.7,12.7,0,0,0,2.1,1.345c1.766.862,3.774.957,4.583.168L8.812,10.353A1.631,1.631,0,0,1,7.2,10.1Zm6.932,1L11.561,8.528a.511.511,0,0,0-.717,0h0l-.564.563-.52.523a1.579,1.579,0,0,1-.209.173l3.3,3.3q.64-.641,1.279-1.277A.5.5,0,0,0,14.129,11.1Z" transform="translate(-0.003)" fill="#fff"/>
</svg>
