<svg xmlns="http://www.w3.org/2000/svg" width="19.63" height="22.514" viewBox="0 0 19.63 22.514">
  <path id="Path_32873" data-name="Path 32873" d="M22.261,5H8.87A2.873,2.873,0,0,0,6,7.87V26.043a.957.957,0,0,0,1.544.755l8.021-6.238L23.587,26.8a.957.957,0,0,0,1.544-.755V7.87A2.873,2.873,0,0,0,22.261,5Zm.957,19.088-7.065-5.5a.957.957,0,0,0-1.175,0l-7.065,5.5V7.87a.958.958,0,0,1,.957-.957H22.261a.958.958,0,0,1,.957.957Z" transform="translate(-5.75 -4.75)" fill="#fff" stroke="#fff" stroke-width="0.5"/>
</svg>
