<svg id="type" xmlns="http://www.w3.org/2000/svg" width="196.016" height="57.669" viewBox="0 0 196.016 57.669">
  <path id="type_CompoundPathItem_" data-name="type &lt;CompoundPathItem&gt;" d="M281.74,40.061a5.045,5.045,0,0,0,.835,2.866,2.919,2.919,0,0,0,2.616,1.252H275.006a2.991,2.991,0,0,0,2.643-1.252,4.93,4.93,0,0,0,.863-2.866V3.555a3.507,3.507,0,0,0-.528-1.864,1.79,1.79,0,0,0-1.642-.863l5.4-.779Z" transform="translate(-212.615 -0.038)" fill="#1c2534"/>
  <path id="type_CompoundPathItem_2" data-name="type &lt;CompoundPathItem&gt;" d="M330.2,70.459a4.818,4.818,0,0,0,.89,2.866,3,3,0,0,0,2.616,1.252H323.518a2.99,2.99,0,0,0,2.644-1.252,4.929,4.929,0,0,0,.863-2.866v-20.2a3.556,3.556,0,0,0-.529-1.836,1.777,1.777,0,0,0-1.642-.89l5.342-.779Zm.557-28.938a2.185,2.185,0,0,1-2.17,2.17,2.118,2.118,0,0,1-1.5-.64,2.044,2.044,0,0,1-.668-1.53,2.181,2.181,0,0,1,.64-1.558,2.045,2.045,0,0,1,1.53-.668,2.023,2.023,0,0,1,1.558.668A2.237,2.237,0,0,1,330.753,41.522Z" transform="translate(-250.121 -30.381)" fill="#1c2534"/>
  <path id="type_CompoundPathItem_3" data-name="type &lt;CompoundPathItem&gt;" d="M396.064,90.169a6.848,6.848,0,0,1-1,3.784,8.425,8.425,0,0,1-2.56,2.56A10.933,10.933,0,0,1,389,97.959a17.216,17.216,0,0,1-3.84.445,18.9,18.9,0,0,1-6.01-1,14.356,14.356,0,0,1-5.287-3.116l.334-.334a16.168,16.168,0,0,0,5.064,2.95,16.953,16.953,0,0,0,5.787,1,11.979,11.979,0,0,0,2.866-.362,8.948,8.948,0,0,0,2.7-1.141,6.865,6.865,0,0,0,2.031-1.976,4.907,4.907,0,0,0,.807-2.81,4.4,4.4,0,0,0-1.725-3.534,16.559,16.559,0,0,0-4.09-2.421,45.136,45.136,0,0,0-4.813-1.725,32.9,32.9,0,0,1-3.951-1.391,8.234,8.234,0,0,1-3.005-2.253,5.373,5.373,0,0,1-1.169-3.534,6.025,6.025,0,0,1,.918-3.395,7.337,7.337,0,0,1,2.337-2.254,10.412,10.412,0,0,1,3.172-1.252,15.772,15.772,0,0,1,3.422-.39,19.178,19.178,0,0,1,5.259.751,11.274,11.274,0,0,1,4.591,2.532,2.115,2.115,0,0,1,.473.751,3.156,3.156,0,0,1,.083.807,2.094,2.094,0,0,1-2.17,2.17,2.133,2.133,0,0,1-1.53-.612,2.061,2.061,0,0,1-.64-1.558,2.186,2.186,0,0,1,2.17-2.17,11.469,11.469,0,0,0-3.951-1.725,19.986,19.986,0,0,0-4.508-.5,9.179,9.179,0,0,0-2.365.334,8.714,8.714,0,0,0-2.337,1,5.9,5.9,0,0,0-1.781,1.669,3.991,3.991,0,0,0-.7,2.337,3.589,3.589,0,0,0,1.391,2.949,12.964,12.964,0,0,0,3.506,1.92q2.114.807,4.563,1.53a27.877,27.877,0,0,1,4.563,1.78,11.343,11.343,0,0,1,3.506,2.644A5.978,5.978,0,0,1,396.064,90.169Z" transform="translate(-289.042 -53.707)" fill="#1c2534"/>
  <path id="type_CompoundPathItem_4" data-name="type &lt;CompoundPathItem&gt;" d="M484.9,40.061a4.926,4.926,0,0,0,.863,2.866,2.99,2.99,0,0,0,2.644,1.252H478.218a2.991,2.991,0,0,0,2.643-1.252,4.93,4.93,0,0,0,.863-2.866V3.555a3.558,3.558,0,0,0-.529-1.837,1.777,1.777,0,0,0-1.642-.89L484.9.049v19.7a10.829,10.829,0,0,1,4.424-2.838,16.076,16.076,0,0,1,5.259-.89,15.315,15.315,0,0,1,3.506.418,10.063,10.063,0,0,1,3.2,1.335,7.686,7.686,0,0,1,2.337,2.365,6.3,6.3,0,0,1,.919,3.45V40.061a4.922,4.922,0,0,0,.863,2.866,2.988,2.988,0,0,0,2.643,1.252H497.863a2.991,2.991,0,0,0,2.643-1.252,4.93,4.93,0,0,0,.862-2.866V23.366a6.457,6.457,0,0,0-2.059-5.2,8.041,8.041,0,0,0-5.4-1.753,11.831,11.831,0,0,0-2.309.25,16.024,16.024,0,0,0-2.449.7,9.89,9.89,0,0,0-2.2,1.141,5.909,5.909,0,0,0-1.614,1.642,1.874,1.874,0,0,0-.278.445,1.338,1.338,0,0,0-.167.445Z" transform="translate(-369.725 -0.038)" fill="#1c2534"/>
  <path id="type_CompoundPathItem_5" data-name="type &lt;CompoundPathItem&gt;" d="M60.062,75.693A13.593,13.593,0,0,0,57.14,71.1a13.4,13.4,0,0,0-4.48-3.033,14.754,14.754,0,0,0-5.76-1.085,14.936,14.936,0,0,0-5.454.974,13.157,13.157,0,0,0-7.346,6.9,15.571,15.571,0,0,0-1.335,5.37c-.779-1.038-5.349-8.043-6.36-9.054a11.417,11.417,0,0,0-3.952-3.089,14.779,14.779,0,0,0-5.28-1.167A15.711,15.711,0,0,0,11.241,68.2a11.716,11.716,0,0,0-4.508,3.59V67.279l-5.342.779a1.714,1.714,0,0,1,1.614.89,3.7,3.7,0,0,1,.5,1.837v34.558a4.7,4.7,0,0,1-.89,2.838A3.032,3.032,0,0,1,0,109.406H10.24A3.015,3.015,0,0,1,7.6,108.181a4.8,4.8,0,0,1-.863-2.838V92.377a10.711,10.711,0,0,0,3.923,2.616,13.135,13.135,0,0,0,4.7.834,16.01,16.01,0,0,0,5.982-1.057A13.03,13.03,0,0,0,25.087,92.5c.261-.227.521-.456.762-.7a12.745,12.745,0,0,0,2.838-4.619,18.81,18.81,0,0,0,.974-5.982,8.7,8.7,0,0,0-.287-2.859c-.546-.842-1.243-1.856-1.6-2.293a16.44,16.44,0,0,0-5.114-4.926c.369.505.8,1.254,1.113,1.738A10.4,10.4,0,0,1,25.4,76.545a19.818,19.818,0,0,1-.083,9.877A14.714,14.714,0,0,1,23.988,89.8a13.281,13.281,0,0,1-.727,1.188,11.029,11.029,0,0,1-3.534,3.256,9.809,9.809,0,0,1-5.036,1.252,8.825,8.825,0,0,1-2.226-.306,11.055,11.055,0,0,1-2.254-.863,9.648,9.648,0,0,1-1.975-1.336,8.959,8.959,0,0,1-1.5-1.669V72.733a12.486,12.486,0,0,1,3.84-3.589,9.557,9.557,0,0,1,4.586-1.4,15.689,15.689,0,0,1,3.151.32,15.153,15.153,0,0,1,8.473,4.962q.977,1.114,1.905,2.317.95,1.23,1.851,2.552a47.94,47.94,0,0,0,3.784,4.869,19.29,19.29,0,0,0,4.507,3.756,11.362,11.362,0,0,0,5.955,1.5,13.719,13.719,0,0,0,4.674-.779,11.579,11.579,0,0,0,3.784-2.2,10.262,10.262,0,0,0,2.56-3.478,10.928,10.928,0,0,0,.946-4.619,12.5,12.5,0,0,0-.167-2.059,18.256,18.256,0,0,1,1.169,6.567,19.928,19.928,0,0,1-.64,4.953,14.9,14.9,0,0,1-1.975,4.536,11.01,11.01,0,0,1-3.367,3.311,8.944,8.944,0,0,1-4.87,1.28,9.682,9.682,0,0,1-3.645-.64,8.714,8.714,0,0,1-2.783-1.781,12,12,0,0,1-2.087-2.671c-.593-1.02-1.46-2.694-1.46-2.694a8.651,8.651,0,0,0-1.99-2.512,30.655,30.655,0,0,1-2.226-2.421,10.8,10.8,0,0,0,1.141,4.733A13.724,13.724,0,0,0,36.8,92a13.077,13.077,0,0,0,4.424,2.894A15.092,15.092,0,0,0,46.9,95.922a14.758,14.758,0,0,0,5.76-1.085,13.594,13.594,0,0,0,4.48-3.005,13.228,13.228,0,0,0,2.922-4.591,15.947,15.947,0,0,0,1.029-5.787A15.731,15.731,0,0,0,60.062,75.693Zm-4.7,5.7a9.848,9.848,0,0,1-2.421,3.311A10.554,10.554,0,0,1,49.322,86.8a13.4,13.4,0,0,1-4.424.723,11.671,11.671,0,0,1-4.647-.918,15.792,15.792,0,0,1-4.035-2.532,20.226,20.226,0,0,1-.167-2.616,19.975,19.975,0,0,1,.64-4.953,15.338,15.338,0,0,1,1.947-4.535A10.643,10.643,0,0,1,42,68.654a9.091,9.091,0,0,1,4.9-1.28,9.7,9.7,0,0,1,3.784.723,8.772,8.772,0,0,1,2.977,2.031,9.016,9.016,0,0,1,1.92,3.061A10.63,10.63,0,0,1,56.25,77,10.449,10.449,0,0,1,55.359,81.4Z" transform="translate(0 -51.737)" fill="#1c2534"/>
  <path id="type_CompoundPathItem_6" data-name="type &lt;CompoundPathItem&gt;" d="M663.456,0V20.367a13.606,13.606,0,0,0-9.824-4.3v-.007c-11.8,0-13.641,7.366-15.423,14.49-.847,3.387-1.723,6.889-3.7,9.433a9.814,9.814,0,0,1-3.913,3.039,12.558,12.558,0,0,1-2.229.726,13.709,13.709,0,0,1-2.158.163,9.918,9.918,0,0,1-4.925-1.169,10.986,10.986,0,0,1-3.506-3.089,13.457,13.457,0,0,1-2.115-4.368,18.014,18.014,0,0,1-.7-4.953,17.547,17.547,0,0,1,.334-3.45H636a10.28,10.28,0,0,0-3.506-7.93,11.746,11.746,0,0,0-3.729-2.2,12.946,12.946,0,0,0-4.507-.779,12.09,12.09,0,0,0-5.426,1.169,11.958,11.958,0,0,0-4.007,3.172,13.852,13.852,0,0,0-2.477,4.619,17.829,17.829,0,0,0-.835,5.453,17.394,17.394,0,0,0,.89,5.593A13.7,13.7,0,0,0,615,40.607a12.463,12.463,0,0,0,4.146,3.144,12.762,12.762,0,0,0,5.565,1.169,13.275,13.275,0,0,0,6.8-1.606c4.805-2.477,6.087-7.6,7.337-12.6.866-3.46,1.76-7.039,3.829-9.659a10.266,10.266,0,0,1,4.109-3.137,16.828,16.828,0,0,1,6.467-1.2v0c3.64,0,9.8,5.053,10.224,9.318,0,1.7.005,3.4.015,5.094q.029,4.591.028,9.21l-.056.111a9.808,9.808,0,0,1-3.534,2.866,9.65,9.65,0,0,1-4.368,1.141,9.77,9.77,0,0,1-5.064-1.252,11.116,11.116,0,0,1-3.506-3.255,14.244,14.244,0,0,1-2.059-4.535,19.876,19.876,0,0,1-.668-5.092,22.782,22.782,0,0,1,.528-4.869,17.789,17.789,0,0,1,1.977-4.918l.9-1.453a11,11,0,0,0-6.167,7.218,23.408,23.408,0,0,0-.583,4.107,16.309,16.309,0,0,0,.648,5.731,13.44,13.44,0,0,0,2.782,4.647,12.149,12.149,0,0,0,4.424,3.005,15.794,15.794,0,0,0,5.954,1.057,10.584,10.584,0,0,0,3.831-.655,22.242,22.242,0,0,0,3.793-1.738,2.372,2.372,0,0,1,1.391-.39,3.287,3.287,0,0,1,1.808.556,2.622,2.622,0,0,1,1.141,1.5V29.585c0-.016,0-.848,0-.864l0-3.957V3.506a3.707,3.707,0,0,1,.5-1.837A1.715,1.715,0,0,1,668.8.779ZM616.72,22.883a11.9,11.9,0,0,1,2.17-2.977,9.952,9.952,0,0,1,2.977-2.059,8.846,8.846,0,0,1,3.673-.751,10.72,10.72,0,0,1,5.315,1.419,8.209,8.209,0,0,1,3.645,4.035,4.156,4.156,0,0,1,.5,1.836,1.66,1.66,0,0,1-.751,1.558,3.369,3.369,0,0,1-1.753.445H615.413A15.6,15.6,0,0,1,616.72,22.883Z" transform="translate(-472.782)" fill="#1c2534"/>
</svg>
